<?xml version="1.0" standalone="no"?>
<!DOCTYPE svg PUBLIC "-//W3C//DTD SVG 20010904//EN"
 "http://www.w3.org/TR/2001/REC-SVG-20010904/DTD/svg10.dtd">
<svg version="1.0" xmlns="http://www.w3.org/2000/svg"
 width="512.000000pt" height="512.000000pt" viewBox="0 0 512.000000 512.000000"
 preserveAspectRatio="xMidYMid meet">
<metadata>
Created by potrace 1.14, written by Peter Selinger 2001-2017
</metadata>
<g transform="translate(0.000000,512.000000) scale(0.100000,-0.100000)"
fill="#000000" stroke="none">
<path d="M2236 5046 c-60 -23 -88 -47 -124 -112 -19 -32 -41 -67 -50 -78 -25
-27 -82 -54 -131 -61 -57 -8 -89 -21 -128 -51 -18 -13 -67 -39 -110 -58 -249
-107 -469 -254 -663 -446 -248 -246 -424 -527 -530 -848 -44 -134 -90 -330
-90 -385 0 -12 -16 -45 -36 -72 -68 -96 -96 -184 -96 -300 1 -87 30 -183 77
-252 l35 -53 -2 -237 -3 -237 -152 -1 c-138 -1 -156 -3 -180 -21 -48 -36 -54
-59 -51 -185 3 -130 10 -146 78 -178 l35 -16 1 -632 2 -631 23 -44 c17 -30 38
-50 69 -66 44 -22 51 -23 310 -20 257 3 266 4 297 26 17 12 42 39 55 60 l23
37 0 484 c0 446 2 485 17 490 19 7 696 6 703 0 2 -3 -13 -22 -33 -44 -159
-171 -307 -421 -369 -625 -46 -149 -60 -215 -70 -348 l-6 -82 1423 0 1422 0
-7 97 c-4 54 -8 100 -10 103 -2 3 -6 23 -9 45 -40 252 -203 570 -409 800 -25
27 -44 52 -42 55 4 7 700 4 711 -3 5 -3 9 -211 8 -479 -1 -496 1 -514 44 -561
9 -11 34 -28 54 -38 34 -17 62 -19 290 -19 243 0 256 1 298 23 31 15 52 35 69
65 l23 44 2 633 1 634 37 14 c62 25 78 64 78 187 0 86 -4 111 -20 137 -32 53
-49 57 -240 59 -96 1 -177 2 -180 3 -3 0 -5 108 -5 239 l1 237 27 37 c15 19
39 64 54 99 22 55 26 79 26 169 0 136 -19 192 -107 315 -8 11 -24 72 -35 135
-84 472 -325 903 -682 1219 -121 108 -123 109 -240 188 -102 67 -292 169 -389
207 -25 10 -54 26 -65 36 -30 27 -75 47 -120 53 -88 12 -148 54 -185 127 -44
89 -94 126 -182 136 -47 6 -64 2 -129 -26 -93 -42 -146 -42 -226 -4 -69 33
-134 39 -187 20z"/>
</g>
</svg>
